HIERARCHY
ROOT Hips
{
	OFFSET 0.000000 0.000000 0.000000
	CHANNELS 6 Xposition Yposition Zposition Zrotation Yrotation Xrotation 
	JOINT LHipJoint
	{
		OFFSET 0.000000 0.000000 0.000000
		CHANNELS 3 Zrotation Yrotation Xrotation
		JOINT LeftUpLeg
		{
			OFFSET 1.363060 -1.794630 0.839290
			CHANNELS 3 Zrotation Yrotation Xrotation
			JOINT LeftLeg
			{
				OFFSET 2.448110 -6.726130 0.000000
				CHANNELS 3 Zrotation Yrotation Xrotation
				JOINT LeftFoot
				{
					OFFSET 2.562200 -7.039590 0.000000
					CHANNELS 3 Zrotation Yrotation Xrotation
					JOINT LeftToeBase
					{
						OFFSET 0.157640 -0.433110 2.322550
						CHANNELS 3 Zrotation Yrotation Xrotation
						End Site
						{
							OFFSET 0.000000 0.000000 0.000000
						}
					}
				}
			}
		}
	}
	JOINT RHipJoint
	{
		OFFSET 0.000000 0.000000 0.000000
		CHANNELS 3 Zrotation Yrotation Xrotation
		JOINT RightUpLeg
		{
			OFFSET -1.305520 -1.794630 0.839290
			CHANNELS 3 Zrotation Yrotation Xrotation
			JOINT RightLeg
			{
				OFFSET -2.542530 -6.985550 0.000000
				CHANNELS 3 Zrotation Yrotation Xrotation
				JOINT RightFoot
				{
					OFFSET -2.568260 -7.056230 0.000000
					CHANNELS 3 Zrotation Yrotation Xrotation
					JOINT RightToeBase
					{
						OFFSET -0.164730 -0.452590 2.363150
						CHANNELS 3 Zrotation Yrotation Xrotation
						End Site
						{
							OFFSET 0.000000 0.000000 0.000000
						}
					}
				}
			}
		}
	}
	JOINT LowerBack
	{
		OFFSET 0.000000 0.000000 0.000000
		CHANNELS 3 Zrotation Yrotation Xrotation
		JOINT Spine
		{
			OFFSET 0.028270 2.035590 -0.193380
			CHANNELS 3 Zrotation Yrotation Xrotation
			JOINT Spine1
			{
				OFFSET 0.056720 2.048850 -0.042750
				CHANNELS 3 Zrotation Yrotation Xrotation
				JOINT Neck
				{
					OFFSET 0.000000 0.000000 0.000000
					CHANNELS 3 Zrotation Yrotation Xrotation
					JOINT Neck1
					{
						OFFSET -0.054170 1.746240 0.172020
						CHANNELS 3 Zrotation Yrotation Xrotation
						JOINT Head
						{
							OFFSET 0.104070 1.761360 -0.123970
							CHANNELS 3 Zrotation Yrotation Xrotation
							End Site
							{
								OFFSET 0.000000 0.000000 0.000000
							}
						}
					}
				}
				JOINT LeftShoulder
				{
					OFFSET 0.000000 0.000000 0.000000
					CHANNELS 3 Zrotation Yrotation Xrotation
					JOINT LeftArm
					{
						OFFSET 3.362410 1.200890 -0.311210
						CHANNELS 3 Zrotation Yrotation Xrotation
						JOINT LeftForeArm
						{
							OFFSET 4.983000 -0.000000 -0.000000
							CHANNELS 3 Zrotation Yrotation Xrotation
							JOINT LeftHand
							{
								OFFSET 3.483560 -0.000000 -0.000000
								CHANNELS 3 Zrotation Yrotation Xrotation
								JOINT LeftFingerBase
								{
									OFFSET 0.000000 0.000000 0.000000
									CHANNELS 3 Zrotation Yrotation Xrotation
									JOINT LeftHandIndex1
									{
										OFFSET 0.715260 -0.000000 -0.000000
										CHANNELS 3 Zrotation Yrotation Xrotation
										End Site
										{
											OFFSET 0.000000 0.000000 0.000000
										}
									}
								}
								JOINT LThumb
								{
									OFFSET 0.000000 0.000000 0.000000
									CHANNELS 3 Zrotation Yrotation Xrotation
									End Site
									{
										OFFSET 0.000000 0.000000 0.000000
									}
								}
							}
						}
					}
				}
				JOINT RightShoulder
				{
					OFFSET 0.000000 0.000000 0.000000
					CHANNELS 3 Zrotation Yrotation Xrotation
					JOINT RightArm
					{
						OFFSET -3.136600 1.374050 -0.404650
						CHANNELS 3 Zrotation Yrotation Xrotation
						JOINT RightForeArm
						{
							OFFSET -5.241900 -0.000000 -0.000000
							CHANNELS 3 Zrotation Yrotation Xrotation
							JOINT RightHand
							{
								OFFSET -3.444170 -0.000000 -0.000000
								CHANNELS 3 Zrotation Yrotation Xrotation
								JOINT RightFingerBase
								{
									OFFSET 0.000000 0.000000 0.000000
									CHANNELS 3 Zrotation Yrotation Xrotation
									JOINT RightHandIndex1
									{
										OFFSET -0.622530 -0.000000 -0.000000
										CHANNELS 3 Zrotation Yrotation Xrotation
										End Site
										{
											OFFSET 0.000000 0.000000 0.000000
										}
									}
								}
								JOINT RThumb
								{
									OFFSET 0.000000 0.000000 0.000000
									CHANNELS 3 Zrotation Yrotation Xrotation
									End Site
									{
										OFFSET 0.000000 0.000000 0.000000
									}
								}
							}
						}
					}
				}
			}
		}
	}
}
MOTION
Frames: 8
Frame Time: 0.008333
-7.017033 17.518763 -21.420241 -42.621040 77.010324 -37.980739 -4.702272 -3.616971 -1.765556 -3.813049 0.580610 -25.827637 0.357574 7.899462 21.290119 0.808360 -3.097840 11.441479 2.158200 9.188100 26.385600 4.322249 2.493663 0.179573 21.493772 -5.471487 8.830163 -1.446670 -10.471533 27.385394 -1.615397 2.014572 18.933041 -0.084300 -1.873200 5.155300 6.423438 3.248858 4.493823 1.509056 4.534861 -1.928253 1.378992 2.518407 3.720642 -7.178409 0.409028 -12.014658 1.529726 3.816215 25.275256 2.093900 0.886300 16.046200 -0.007826 -1.061990 0.349367 -88.209016 7.697917 18.224844 15.350398 -26.697686 -3.821258 0.021374 0.312803 0.260072 16.053913 20.915930 5.772000 -7.125000 0.000000 0.000000 -12.556800 50.906300 -1.852300 2.209722 0.747557 -0.520805 83.656918 -2.458740 16.494410 -13.260068 21.777727 -2.953780 0.512309 -0.135054 -9.616603 -21.101261 11.354073 -4.529200 7.125000 0.000000 0.000000 3.894600 -17.601400 2.540500 
-6.885487 17.543955 -21.443198 -39.976023 77.340861 -35.295476 -4.789741 -3.592592 -1.684482 -4.675200 0.648055 -25.545540 0.310160 7.890676 21.179280 0.804669 -2.983832 11.609684 2.249600 9.367700 26.952400 4.316865 2.549551 0.110447 20.715141 -4.918330 7.815163 -1.848682 -11.211224 29.691281 -1.609528 0.941430 19.921142 -0.114600 -2.182300 6.009800 5.801214 3.214132 4.400968 1.384278 4.465454 -1.958898 1.249561 2.477199 3.679333 -6.764618 0.475609 -12.157278 1.282703 3.855446 25.375401 1.859500 0.941500 16.183000 -0.009299 -1.072721 0.347535 -87.965880 7.779007 18.164184 15.376196 -26.725426 -3.831556 0.019552 0.308670 0.126476 15.945540 20.659363 5.664800 -7.125000 0.000000 0.000000 -12.564400 50.637100 -1.769500 2.189109 0.739113 -0.536332 83.964220 -2.798739 16.563425 -13.480031 22.079806 -3.041354 0.494398 -0.130493 -9.303371 -20.774513 11.322448 -4.435000 7.125000 0.000000 0.000000 4.133200 -17.675100 2.690200 
-6.756278 17.564474 -21.462092 -38.236864 77.450072 -33.460308 -4.855942 -3.577370 -1.601930 -5.339317 0.966707 -25.328356 0.254361 7.820793 20.921276 0.826884 -3.052124 11.888874 2.216900 9.304000 26.751000 4.297589 2.597925 0.047491 20.130303 -4.776525 6.731922 -2.252630 -11.876322 31.871522 -1.692733 0.807199 20.992805 -0.088000 -1.912900 5.265000 5.436724 3.197216 4.217309 1.332655 4.422968 -1.996000 1.331759 2.445149 3.688117 -7.327023 0.566761 -12.373692 1.729935 4.153598 25.584684 2.285600 0.993200 16.373700 -0.042750 -1.061608 0.331979 -87.794480 7.918027 18.533196 15.435843 -26.795194 -3.853347 0.019308 0.306264 -0.403210 16.165236 20.484931 5.699500 -7.125000 0.000000 0.000000 -12.290800 50.500300 -1.688200 2.158498 0.751902 -0.547124 83.666024 -2.993032 17.310732 -13.580593 22.246321 -3.085375 0.480026 -0.123403 -9.676192 -20.299358 11.381843 -4.343500 7.125000 0.000000 0.000000 4.477600 -17.660600 2.917100 
-6.628389 17.586821 -21.479056 -35.224092 77.915022 -30.580086 -4.976390 -3.559624 -1.510190 -6.382472 1.010622 -24.858186 0.185589 7.775188 20.682769 0.839288 -3.102131 12.050014 2.421900 9.694500 27.992900 4.256233 2.650195 -0.024754 19.042169 -4.930778 5.765832 -2.658652 -12.473787 33.912591 -1.829879 0.836115 22.351376 -0.061700 -1.602300 4.407700 4.462509 3.024385 4.205450 1.364797 4.183415 -1.989007 1.947276 2.290507 3.623454 -7.961967 0.636765 -12.219841 1.888697 4.424805 25.588827 2.517100 1.022400 16.300200 -0.045078 -1.060824 0.329551 -88.251319 8.072910 18.423277 15.486797 -26.888753 -3.880723 0.018420 0.315695 -0.666998 16.355140 20.698545 5.825000 -7.125000 0.000000 0.000000 -12.184000 50.734600 -1.744000 2.168128 0.760968 -0.537393 82.942190 -2.898894 17.806883 -13.480015 22.116487 -3.045684 0.481367 -0.125641 -9.539310 -20.266625 11.398959 -4.343100 7.125000 0.000000 0.000000 4.500000 -17.643800 2.933500 
-6.500398 17.616991 -21.498864 -33.889501 78.247050 -29.548915 -5.092670 -3.516379 -1.410148 -6.897808 0.574587 -23.937495 0.118016 7.709014 20.379431 0.803436 -2.731888 11.881766 2.716700 10.221600 29.697500 4.215466 2.673093 -0.106372 18.406965 -4.869714 4.963638 -3.096151 -13.065217 35.897784 -1.908859 -0.244851 23.807257 -0.189800 -2.805500 7.737700 3.990268 2.712006 4.459757 1.454129 3.782157 -1.976629 2.361693 2.071728 3.451919 -8.090108 0.916753 -11.948847 1.541242 4.909317 25.499278 2.347000 1.182400 16.126200 -0.008986 -1.092916 0.339911 -88.759474 8.363201 17.845166 15.657604 -27.130264 -3.960124 0.014595 0.325164 -0.718213 16.239391 20.970203 5.853500 -7.125000 0.000000 0.000000 -12.391700 50.977900 -1.849300 2.210743 0.745450 -0.533654 82.322675 -2.944009 18.672948 -13.494706 22.135279 -3.049210 0.492094 -0.125567 -9.652237 -20.569542 11.443308 -4.432000 7.125000 0.000000 0.000000 4.282200 -17.567800 2.797800 
-6.373423 17.645331 -21.511765 -33.506797 78.064614 -29.426240 -5.141313 -3.471490 -1.302660 -7.031823 0.635919 -23.192507 0.083882 7.662452 20.177596 0.774641 -2.584945 11.443872 2.602000 10.021000 29.044700 4.194991 2.678229 -0.195951 18.379598 -4.244136 4.373584 -3.564251 -13.649947 37.827775 -1.903486 -2.188188 25.048740 -0.475000 -4.419900 12.261200 4.137254 2.745875 4.748729 1.449512 3.848327 -1.961258 2.205193 2.113228 3.330275 -7.653309 1.017003 -11.827772 1.169600 4.967705 25.424510 2.031600 1.251800 16.057400 0.009674 -1.116001 0.350445 -88.541672 8.416573 17.817996 15.775394 -27.273447 -4.009276 0.010010 0.322020 -0.771965 15.943178 20.872492 5.718300 -7.125000 0.000000 0.000000 -12.637900 50.836000 -1.842600 2.230658 0.733104 -0.535322 82.256274 -3.103074 19.046915 -13.654100 22.350882 -3.112194 0.493246 -0.118367 -10.144306 -20.605432 11.482186 -4.453700 7.125000 0.000000 0.000000 4.257800 -17.526700 2.785600 
-6.251528 17.657622 -21.526189 -31.520227 78.029738 -27.619738 -5.193301 -3.440917 -1.222097 -7.586513 0.790316 -22.787564 0.084462 7.724730 20.288875 0.745992 -2.653360 10.776920 2.286600 9.439100 27.178700 4.174238 2.699993 -0.277541 17.900947 -3.829165 3.610430 -4.066417 -14.203787 39.745324 -1.916946 -4.099609 26.382471 -0.843800 -5.859000 16.376000 4.014348 3.064782 4.882016 1.299664 4.274272 -1.933373 1.902284 2.333340 3.371914 -7.730899 0.773583 -11.982090 1.419707 4.601902 25.465456 2.188400 1.104800 16.157300 -0.033815 -1.098331 0.346940 -88.063924 8.059321 18.142990 15.757885 -27.221628 -3.995833 0.009278 0.315512 -0.547013 15.821235 20.901622 5.682700 -7.125000 0.000000 0.000000 -12.767700 50.852200 -1.867100 2.181560 0.752007 -0.531970 82.616347 -3.101261 18.164381 -13.744176 22.478475 -3.153854 0.481676 -0.120431 -9.996769 -20.370961 11.531524 -4.415200 7.125000 0.000000 0.000000 4.431000 -17.496500 2.902600 
-6.135117 17.660670 -21.544473 -31.347833 78.139054 -27.524015 -5.253052 -3.401522 -1.171673 -7.781725 0.259816 -22.188829 0.068022 7.742536 20.274996 0.671991 -2.228318 10.022327 2.049000 8.967300 25.693200 4.153232 2.724111 -0.339592 17.596123 -4.076897 2.546218 -4.589226 -14.738372 41.722430 -1.976579 -5.165784 27.484169 -0.940000 -6.175400 17.294100 4.178254 3.179064 4.905295 1.197845 4.427690 -1.924353 1.562743 2.423782 3.423134 -7.920659 0.587949 -12.044109 1.672587 4.340258 25.480813 2.381100 0.983400 16.194500 -0.080012 -1.079882 0.343695 -87.602950 7.802617 18.437160 15.816050 -27.270841 -4.017426 0.009298 0.312152 -0.389098 15.936767 21.338408 5.842600 -7.125000 0.000000 0.000000 -12.826300 51.309600 -2.021600 2.137386 0.764392 -0.527493 82.820083 -3.036666 17.697671 -13.799943 22.567757 -3.181546 0.476515 -0.119128 -9.804160 -20.301246 11.418960 -4.355400 7.125000 0.000000 0.000000 4.479400 -17.625600 2.921800 
